<svg width="648" height="262" xmlns="http://www.w3.org/2000/svg" xmlns:xlink="http://www.w3.org/1999/xlink" overflow="hidden"><defs><clipPath id="clip0"><path d="M316 229 964 229 964 491 316 491Z" fill-rule="evenodd" clip-rule="evenodd"/></clipPath><clipPath id="clip1"><path d="M317 230 962 230 962 489 317 489Z" fill-rule="evenodd" clip-rule="evenodd"/></clipPath><clipPath id="clip2"><path d="M317 230 962 230 962 489 317 489Z" fill-rule="evenodd" clip-rule="evenodd"/></clipPath><clipPath id="clip3"><path d="M317 230 962 230 962 489 317 489Z" fill-rule="evenodd" clip-rule="evenodd"/></clipPath><clipPath id="clip4"><path d="M317 230 962 230 962 489 317 489Z" fill-rule="evenodd" clip-rule="evenodd"/></clipPath><clipPath id="clip5"><path d="M384 279 950 279 950 396 384 396Z" fill-rule="evenodd" clip-rule="evenodd"/></clipPath><clipPath id="clip6"><path d="M317 230 962 230 962 489 317 489Z" fill-rule="evenodd" clip-rule="evenodd"/></clipPath><clipPath id="clip7"><path d="M317 230 962 230 962 489 317 489Z" fill-rule="evenodd" clip-rule="evenodd"/></clipPath><clipPath id="clip8"><path d="M317 230 962 230 962 489 317 489Z" fill-rule="evenodd" clip-rule="evenodd"/></clipPath><clipPath id="clip9"><path d="M317 230 962 230 962 489 317 489Z" fill-rule="evenodd" clip-rule="evenodd"/></clipPath><clipPath id="clip10"><path d="M317 230 962 230 962 489 317 489Z" fill-rule="evenodd" clip-rule="evenodd"/></clipPath><clipPath id="clip11"><path d="M317 230 962 230 962 489 317 489Z" fill-rule="evenodd" clip-rule="evenodd"/></clipPath><clipPath id="clip12"><path d="M317 230 962 230 962 489 317 489Z" fill-rule="evenodd" clip-rule="evenodd"/></clipPath><clipPath id="clip13"><path d="M317 230 962 230 962 489 317 489Z" fill-rule="evenodd" clip-rule="evenodd"/></clipPath><clipPath id="clip14"><path d="M317 230 962 230 962 489 317 489Z" fill-rule="evenodd" clip-rule="evenodd"/></clipPath><clipPath id="clip15"><path d="M317 230 962 230 962 489 317 489Z" fill-rule="evenodd" clip-rule="evenodd"/></clipPath><clipPath id="clip16"><path d="M317 230 962 230 962 489 317 489Z" fill-rule="evenodd" clip-rule="evenodd"/></clipPath><clipPath id="clip17"><path d="M317 230 962 230 962 489 317 489Z" fill-rule="evenodd" clip-rule="evenodd"/></clipPath><clipPath id="clip18"><path d="M317 230 962 230 962 489 317 489Z" fill-rule="evenodd" clip-rule="evenodd"/></clipPath><clipPath id="clip19"><path d="M317 230 962 230 962 489 317 489Z" fill-rule="evenodd" clip-rule="evenodd"/></clipPath><clipPath id="clip20"><path d="M317 230 962 230 962 489 317 489Z" fill-rule="evenodd" clip-rule="evenodd"/></clipPath><clipPath id="clip21"><path d="M317 230 962 230 962 489 317 489Z" fill-rule="evenodd" clip-rule="evenodd"/></clipPath><clipPath id="clip22"><path d="M317 230 962 230 962 489 317 489Z" fill-rule="evenodd" clip-rule="evenodd"/></clipPath><clipPath id="clip23"><path d="M317 230 962 230 962 489 317 489Z" fill-rule="evenodd" clip-rule="evenodd"/></clipPath><clipPath id="clip24"><path d="M317 230 962 230 962 489 317 489Z" fill-rule="evenodd" clip-rule="evenodd"/></clipPath><clipPath id="clip25"><path d="M317 230 962 230 962 489 317 489Z" fill-rule="evenodd" clip-rule="evenodd"/></clipPath><clipPath id="clip26"><path d="M317 230 962 230 962 489 317 489Z" fill-rule="evenodd" clip-rule="evenodd"/></clipPath><clipPath id="clip27"><path d="M317 230 962 230 962 489 317 489Z" fill-rule="evenodd" clip-rule="evenodd"/></clipPath></defs><g clip-path="url(#clip0)" transform="translate(-316 -229)"><g clip-path="url(#clip1)"><path d="M384.5 371.5 949.5 371.5M384.5 348.5 949.5 348.5M384.5 325.5 949.5 325.5M384.5 302.5 949.5 302.5M384.5 279.5 949.5 279.5" stroke="#D9D9D9" stroke-linejoin="round" stroke-miterlimit="10" fill="none"/></g><g clip-path="url(#clip2)"><path d="M384.5 279.5 384.5 395.5M455.5 279.5 455.5 395.5M525.5 279.5 525.5 395.5M596.5 279.5 596.5 395.5M666.5 279.5 666.5 395.5M737.5 279.5 737.5 395.5M808.5 279.5 808.5 395.5M878.5 279.5 878.5 395.5M949.5 279.5 949.5 395.5" stroke="#D9D9D9" stroke-linejoin="round" stroke-miterlimit="10" fill="none"/></g><g clip-path="url(#clip3)"><path d="M384.5 395.5 949.5 395.5" stroke="#D9D9D9" stroke-linejoin="round" stroke-miterlimit="10" fill="none" fill-rule="evenodd"/></g><g clip-path="url(#clip4)"><path d="M384.5 392.5 384.5 395.5M398.5 392.5 398.5 395.5M412.5 392.5 412.5 395.5M426.5 392.5 426.5 395.5M440.5 392.5 440.5 395.5M455.5 392.5 455.5 395.5M469.5 392.5 469.5 395.5M483.5 392.5 483.5 395.5M497.5 392.5 497.5 395.5M511.5 392.5 511.5 395.5M525.5 392.5 525.5 395.5M539.5 392.5 539.5 395.5M553.5 392.5 553.5 395.5M568.5 392.5 568.5 395.5M582.5 392.5 582.5 395.5M596.5 392.5 596.5 395.5M610.5 392.5 610.5 395.5M624.5 392.5 624.5 395.5M638.5 392.5 638.5 395.5M652.5 392.5 652.5 395.5M666.5 392.5 666.5 395.5M681.5 392.5 681.5 395.5M695.5 392.5 695.5 395.5M709.5 392.5 709.5 395.5M723.5 392.5 723.5 395.5M737.5 392.5 737.5 395.5M751.5 392.5 751.5 395.5M765.5 392.5 765.5 395.5M779.5 392.5 779.5 395.5M794.5 392.5 794.5 395.5M808.5 392.5 808.5 395.5M822.5 392.5 822.5 395.5M836.5 392.5 836.5 395.5M850.5 392.5 850.5 395.5M864.5 392.5 864.5 395.5M878.5 392.5 878.5 395.5M892.5 392.5 892.5 395.5M907.5 392.5 907.5 395.5M921.5 392.5 921.5 395.5M935.5 392.5 935.5 395.5M949.5 392.5 949.5 395.5M384.5 391.5 384.5 395.5M455.5 391.5 455.5 395.5M525.5 391.5 525.5 395.5M596.5 391.5 596.5 395.5M666.5 391.5 666.5 395.5M737.5 391.5 737.5 395.5M808.5 391.5 808.5 395.5M878.5 391.5 878.5 395.5M949.5 391.5 949.5 395.5" stroke="#D9D9D9" stroke-linejoin="round" stroke-miterlimit="10" fill="none"/></g><g clip-path="url(#clip5)"><path d="M384 395 384 393 384 390 384 388 384 386 384 383 384 381 384 379 384 376 384 374 384 371 384 369 384 367 384 364 384 362 384 360 384 357 384 355 384 353 384 350 384 348 384 346 384 343 384 341 384 338 384 336 384 334 384 331 384 329 384 327 384 324 384 322 384 320 902 317 902 315 902 312 902 310 902 308 902 305 902 303 902 301 902 298 902 296 902 294 902 291 902 289 902 287 902 284 902 282 902 279" stroke="#4C60E6" stroke-width="2" stroke-linecap="round" stroke-linejoin="round" stroke-miterlimit="10" fill="none"/></g><g clip-path="url(#clip6)"><path d="M387.833 395C387.833 396.841 386.341 398.333 384.5 398.333 382.659 398.333 381.167 396.841 381.167 395 381.167 393.159 382.659 391.667 384.5 391.667 386.341 391.667 387.833 393.159 387.833 395Z" stroke="#4C60E6" stroke-width="2" stroke-linecap="round" stroke-linejoin="round" stroke-miterlimit="10" fill="#FFFFFF"/><path d="M387.833 392.667C387.833 394.508 386.341 396 384.5 396 382.659 396 381.167 394.508 381.167 392.667 381.167 390.826 382.659 389.333 384.5 389.333 386.341 389.333 387.833 390.826 387.833 392.667Z" stroke="#4C60E6" stroke-width="2" stroke-linecap="round" stroke-linejoin="round" stroke-miterlimit="10" fill="#FFFFFF"/><path d="M387.833 390.333C387.833 392.174 386.341 393.667 384.5 393.667 382.659 393.667 381.167 392.174 381.167 390.333 381.167 388.492 382.659 387 384.5 387 386.341 387 387.833 388.492 387.833 390.333Z" stroke="#4C60E6" stroke-width="2" stroke-linecap="round" stroke-linejoin="round" stroke-miterlimit="10" fill="#FFFFFF"/><path d="M387.833 388C387.833 389.841 386.341 391.333 384.5 391.333 382.659 391.333 381.167 389.841 381.167 388 381.167 386.159 382.659 384.667 384.5 384.667 386.341 384.667 387.833 386.159 387.833 388Z" stroke="#4C60E6" stroke-width="2" stroke-linecap="round" stroke-linejoin="round" stroke-miterlimit="10" fill="#FFFFFF"/><path d="M387.833 385.667C387.833 387.508 386.341 389 384.5 389 382.659 389 381.167 387.508 381.167 385.667 381.167 383.826 382.659 382.333 384.5 382.333 386.341 382.333 387.833 383.826 387.833 385.667Z" stroke="#4C60E6" stroke-width="2" stroke-linecap="round" stroke-linejoin="round" stroke-miterlimit="10" fill="#FFFFFF"/><path d="M387.833 383.333C387.833 385.174 386.341 386.667 384.5 386.667 382.659 386.667 381.167 385.174 381.167 383.333 381.167 381.492 382.659 380 384.5 380 386.341 380 387.833 381.492 387.833 383.333Z" stroke="#4C60E6" stroke-width="2" stroke-linecap="round" stroke-linejoin="round" stroke-miterlimit="10" fill="#FFFFFF"/><path d="M387.833 380.833C387.833 382.674 386.341 384.167 384.5 384.167 382.659 384.167 381.167 382.674 381.167 380.833 381.167 378.992 382.659 377.5 384.5 377.5 386.341 377.5 387.833 378.992 387.833 380.833Z" stroke="#4C60E6" stroke-width="2" stroke-linecap="round" stroke-linejoin="round" stroke-miterlimit="10" fill="#FFFFFF"/><path d="M387.833 378.5C387.833 380.341 386.341 381.833 384.5 381.833 382.659 381.833 381.167 380.341 381.167 378.5 381.167 376.659 382.659 375.167 384.5 375.167 386.341 375.167 387.833 376.659 387.833 378.5Z" stroke="#4C60E6" stroke-width="2" stroke-linecap="round" stroke-linejoin="round" stroke-miterlimit="10" fill="#FFFFFF"/><path d="M387.833 376.167C387.833 378.008 386.341 379.5 384.5 379.5 382.659 379.5 381.167 378.008 381.167 376.167 381.167 374.326 382.659 372.833 384.5 372.833 386.341 372.833 387.833 374.326 387.833 376.167Z" stroke="#4C60E6" stroke-width="2" stroke-linecap="round" stroke-linejoin="round" stroke-miterlimit="10" fill="#FFFFFF"/><path d="M387.833 373.833C387.833 375.674 386.341 377.167 384.5 377.167 382.659 377.167 381.167 375.674 381.167 373.833 381.167 371.992 382.659 370.5 384.5 370.5 386.341 370.5 387.833 371.992 387.833 373.833Z" stroke="#4C60E6" stroke-width="2" stroke-linecap="round" stroke-linejoin="round" stroke-miterlimit="10" fill="#FFFFFF"/><path d="M387.833 371.5C387.833 373.341 386.341 374.833 384.5 374.833 382.659 374.833 381.167 373.341 381.167 371.5 381.167 369.659 382.659 368.167 384.5 368.167 386.341 368.167 387.833 369.659 387.833 371.5Z" stroke="#4C60E6" stroke-width="2" stroke-linecap="round" stroke-linejoin="round" stroke-miterlimit="10" fill="#FFFFFF"/><path d="M387.833 369.167C387.833 371.008 386.341 372.5 384.5 372.5 382.659 372.5 381.167 371.008 381.167 369.167 381.167 367.326 382.659 365.833 384.5 365.833 386.341 365.833 387.833 367.326 387.833 369.167Z" stroke="#4C60E6" stroke-width="2" stroke-linecap="round" stroke-linejoin="round" stroke-miterlimit="10" fill="#FFFFFF"/><path d="M387.833 366.833C387.833 368.674 386.341 370.167 384.5 370.167 382.659 370.167 381.167 368.674 381.167 366.833 381.167 364.992 382.659 363.5 384.5 363.5 386.341 363.5 387.833 364.992 387.833 366.833Z" stroke="#4C60E6" stroke-width="2" stroke-linecap="round" stroke-linejoin="round" stroke-miterlimit="10" fill="#FFFFFF"/><path d="M387.833 364.333C387.833 366.174 386.341 367.667 384.5 367.667 382.659 367.667 381.167 366.174 381.167 364.333 381.167 362.492 382.659 361 384.5 361 386.341 361 387.833 362.492 387.833 364.333Z" stroke="#4C60E6" stroke-width="2" stroke-linecap="round" stroke-linejoin="round" stroke-miterlimit="10" fill="#FFFFFF"/><path d="M387.833 362C387.833 363.841 386.341 365.333 384.5 365.333 382.659 365.333 381.167 363.841 381.167 362 381.167 360.159 382.659 358.667 384.5 358.667 386.341 358.667 387.833 360.159 387.833 362Z" stroke="#4C60E6" stroke-width="2" stroke-linecap="round" stroke-linejoin="round" stroke-miterlimit="10" fill="#FFFFFF"/><path d="M387.833 359.667C387.833 361.508 386.341 363 384.5 363 382.659 363 381.167 361.508 381.167 359.667 381.167 357.826 382.659 356.333 384.5 356.333 386.341 356.333 387.833 357.826 387.833 359.667Z" stroke="#4C60E6" stroke-width="2" stroke-linecap="round" stroke-linejoin="round" stroke-miterlimit="10" fill="#FFFFFF"/><path d="M387.833 357.333C387.833 359.174 386.341 360.667 384.5 360.667 382.659 360.667 381.167 359.174 381.167 357.333 381.167 355.492 382.659 354 384.5 354 386.341 354 387.833 355.492 387.833 357.333Z" stroke="#4C60E6" stroke-width="2" stroke-linecap="round" stroke-linejoin="round" stroke-miterlimit="10" fill="#FFFFFF"/><path d="M387.833 355C387.833 356.841 386.341 358.333 384.5 358.333 382.659 358.333 381.167 356.841 381.167 355 381.167 353.159 382.659 351.667 384.5 351.667 386.341 351.667 387.833 353.159 387.833 355Z" stroke="#4C60E6" stroke-width="2" stroke-linecap="round" stroke-linejoin="round" stroke-miterlimit="10" fill="#FFFFFF"/><path d="M387.833 352.667C387.833 354.508 386.341 356 384.5 356 382.659 356 381.167 354.508 381.167 352.667 381.167 350.826 382.659 349.333 384.5 349.333 386.341 349.333 387.833 350.826 387.833 352.667Z" stroke="#4C60E6" stroke-width="2" stroke-linecap="round" stroke-linejoin="round" stroke-miterlimit="10" fill="#FFFFFF"/><path d="M387.833 350.167C387.833 352.008 386.341 353.5 384.5 353.5 382.659 353.5 381.167 352.008 381.167 350.167 381.167 348.326 382.659 346.833 384.5 346.833 386.341 346.833 387.833 348.326 387.833 350.167Z" stroke="#4C60E6" stroke-width="2" stroke-linecap="round" stroke-linejoin="round" stroke-miterlimit="10" fill="#FFFFFF"/><path d="M387.833 347.833C387.833 349.674 386.341 351.167 384.5 351.167 382.659 351.167 381.167 349.674 381.167 347.833 381.167 345.992 382.659 344.5 384.5 344.5 386.341 344.5 387.833 345.992 387.833 347.833Z" stroke="#4C60E6" stroke-width="2" stroke-linecap="round" stroke-linejoin="round" stroke-miterlimit="10" fill="#FFFFFF"/><path d="M387.833 345.5C387.833 347.341 386.341 348.833 384.5 348.833 382.659 348.833 381.167 347.341 381.167 345.5 381.167 343.659 382.659 342.167 384.5 342.167 386.341 342.167 387.833 343.659 387.833 345.5Z" stroke="#4C60E6" stroke-width="2" stroke-linecap="round" stroke-linejoin="round" stroke-miterlimit="10" fill="#FFFFFF"/><path d="M387.833 343.167C387.833 345.008 386.341 346.5 384.5 346.5 382.659 346.5 381.167 345.008 381.167 343.167 381.167 341.326 382.659 339.833 384.5 339.833 386.341 339.833 387.833 341.326 387.833 343.167Z" stroke="#4C60E6" stroke-width="2" stroke-linecap="round" stroke-linejoin="round" stroke-miterlimit="10" fill="#FFFFFF"/><path d="M387.833 340.833C387.833 342.674 386.341 344.167 384.5 344.167 382.659 344.167 381.167 342.674 381.167 340.833 381.167 338.992 382.659 337.5 384.5 337.5 386.341 337.5 387.833 338.992 387.833 340.833Z" stroke="#4C60E6" stroke-width="2" stroke-linecap="round" stroke-linejoin="round" stroke-miterlimit="10" fill="#FFFFFF"/><path d="M387.833 338.5C387.833 340.341 386.341 341.833 384.5 341.833 382.659 341.833 381.167 340.341 381.167 338.5 381.167 336.659 382.659 335.167 384.5 335.167 386.341 335.167 387.833 336.659 387.833 338.5Z" stroke="#4C60E6" stroke-width="2" stroke-linecap="round" stroke-linejoin="round" stroke-miterlimit="10" fill="#FFFFFF"/><path d="M387.833 336C387.833 337.841 386.341 339.333 384.5 339.333 382.659 339.333 381.167 337.841 381.167 336 381.167 334.159 382.659 332.667 384.5 332.667 386.341 332.667 387.833 334.159 387.833 336Z" stroke="#4C60E6" stroke-width="2" stroke-linecap="round" stroke-linejoin="round" stroke-miterlimit="10" fill="#FFFFFF"/><path d="M387.833 333.667C387.833 335.508 386.341 337 384.5 337 382.659 337 381.167 335.508 381.167 333.667 381.167 331.826 382.659 330.333 384.5 330.333 386.341 330.333 387.833 331.826 387.833 333.667Z" stroke="#4C60E6" stroke-width="2" stroke-linecap="round" stroke-linejoin="round" stroke-miterlimit="10" fill="#FFFFFF"/><path d="M387.833 331.333C387.833 333.174 386.341 334.667 384.5 334.667 382.659 334.667 381.167 333.174 381.167 331.333 381.167 329.492 382.659 328 384.5 328 386.341 328 387.833 329.492 387.833 331.333Z" stroke="#4C60E6" stroke-width="2" stroke-linecap="round" stroke-linejoin="round" stroke-miterlimit="10" fill="#FFFFFF"/><path d="M387.833 329C387.833 330.841 386.341 332.333 384.5 332.333 382.659 332.333 381.167 330.841 381.167 329 381.167 327.159 382.659 325.667 384.5 325.667 386.341 325.667 387.833 327.159 387.833 329Z" stroke="#4C60E6" stroke-width="2" stroke-linecap="round" stroke-linejoin="round" stroke-miterlimit="10" fill="#FFFFFF"/><path d="M387.833 326.667C387.833 328.508 386.341 330 384.5 330 382.659 330 381.167 328.508 381.167 326.667 381.167 324.826 382.659 323.333 384.5 323.333 386.341 323.333 387.833 324.826 387.833 326.667Z" stroke="#4C60E6" stroke-width="2" stroke-linecap="round" stroke-linejoin="round" stroke-miterlimit="10" fill="#FFFFFF"/><path d="M387.833 324.333C387.833 326.174 386.341 327.667 384.5 327.667 382.659 327.667 381.167 326.174 381.167 324.333 381.167 322.492 382.659 321 384.5 321 386.341 321 387.833 322.492 387.833 324.333Z" stroke="#4C60E6" stroke-width="2" stroke-linecap="round" stroke-linejoin="round" stroke-miterlimit="10" fill="#FFFFFF"/><path d="M387.833 322C387.833 323.841 386.341 325.333 384.5 325.333 382.659 325.333 381.167 323.841 381.167 322 381.167 320.159 382.659 318.667 384.5 318.667 386.341 318.667 387.833 320.159 387.833 322Z" stroke="#4C60E6" stroke-width="2" stroke-linecap="round" stroke-linejoin="round" stroke-miterlimit="10" fill="#FFFFFF"/><path d="M387.833 319.5C387.833 321.341 386.341 322.833 384.5 322.833 382.659 322.833 381.167 321.341 381.167 319.5 381.167 317.659 382.659 316.167 384.5 316.167 386.341 316.167 387.833 317.659 387.833 319.5Z" stroke="#4C60E6" stroke-width="2" stroke-linecap="round" stroke-linejoin="round" stroke-miterlimit="10" fill="#FFFFFF"/><path d="M905.833 317.167C905.833 319.008 904.341 320.5 902.5 320.5 900.659 320.5 899.167 319.008 899.167 317.167 899.167 315.326 900.659 313.833 902.5 313.833 904.341 313.833 905.833 315.326 905.833 317.167Z" stroke="#4C60E6" stroke-width="2" stroke-linecap="round" stroke-linejoin="round" stroke-miterlimit="10" fill="#FFFFFF"/><path d="M905.833 314.833C905.833 316.674 904.341 318.167 902.5 318.167 900.659 318.167 899.167 316.674 899.167 314.833 899.167 312.992 900.659 311.5 902.5 311.5 904.341 311.5 905.833 312.992 905.833 314.833Z" stroke="#4C60E6" stroke-width="2" stroke-linecap="round" stroke-linejoin="round" stroke-miterlimit="10" fill="#FFFFFF"/><path d="M905.833 312.5C905.833 314.341 904.341 315.833 902.5 315.833 900.659 315.833 899.167 314.341 899.167 312.5 899.167 310.659 900.659 309.167 902.5 309.167 904.341 309.167 905.833 310.659 905.833 312.5Z" stroke="#4C60E6" stroke-width="2" stroke-linecap="round" stroke-linejoin="round" stroke-miterlimit="10" fill="#FFFFFF"/><path d="M905.833 310.167C905.833 312.008 904.341 313.5 902.5 313.5 900.659 313.5 899.167 312.008 899.167 310.167 899.167 308.326 900.659 306.833 902.5 306.833 904.341 306.833 905.833 308.326 905.833 310.167Z" stroke="#4C60E6" stroke-width="2" stroke-linecap="round" stroke-linejoin="round" stroke-miterlimit="10" fill="#FFFFFF"/><path d="M905.833 307.833C905.833 309.674 904.341 311.167 902.5 311.167 900.659 311.167 899.167 309.674 899.167 307.833 899.167 305.992 900.659 304.5 902.5 304.5 904.341 304.5 905.833 305.992 905.833 307.833Z" stroke="#4C60E6" stroke-width="2" stroke-linecap="round" stroke-linejoin="round" stroke-miterlimit="10" fill="#FFFFFF"/><path d="M905.833 305.333C905.833 307.174 904.341 308.667 902.5 308.667 900.659 308.667 899.167 307.174 899.167 305.333 899.167 303.492 900.659 302 902.5 302 904.341 302 905.833 303.492 905.833 305.333Z" stroke="#4C60E6" stroke-width="2" stroke-linecap="round" stroke-linejoin="round" stroke-miterlimit="10" fill="#FFFFFF"/><path d="M905.833 303C905.833 304.841 904.341 306.333 902.5 306.333 900.659 306.333 899.167 304.841 899.167 303 899.167 301.159 900.659 299.667 902.5 299.667 904.341 299.667 905.833 301.159 905.833 303Z" stroke="#4C60E6" stroke-width="2" stroke-linecap="round" stroke-linejoin="round" stroke-miterlimit="10" fill="#FFFFFF"/><path d="M905.833 300.667C905.833 302.508 904.341 304 902.5 304 900.659 304 899.167 302.508 899.167 300.667 899.167 298.826 900.659 297.333 902.5 297.333 904.341 297.333 905.833 298.826 905.833 300.667Z" stroke="#4C60E6" stroke-width="2" stroke-linecap="round" stroke-linejoin="round" stroke-miterlimit="10" fill="#FFFFFF"/><path d="M905.833 298.333C905.833 300.174 904.341 301.667 902.5 301.667 900.659 301.667 899.167 300.174 899.167 298.333 899.167 296.492 900.659 295 902.5 295 904.341 295 905.833 296.492 905.833 298.333Z" stroke="#4C60E6" stroke-width="2" stroke-linecap="round" stroke-linejoin="round" stroke-miterlimit="10" fill="#FFFFFF"/><path d="M905.833 296C905.833 297.841 904.341 299.333 902.5 299.333 900.659 299.333 899.167 297.841 899.167 296 899.167 294.159 900.659 292.667 902.5 292.667 904.341 292.667 905.833 294.159 905.833 296Z" stroke="#4C60E6" stroke-width="2" stroke-linecap="round" stroke-linejoin="round" stroke-miterlimit="10" fill="#FFFFFF"/><path d="M905.833 293.667C905.833 295.508 904.341 297 902.5 297 900.659 297 899.167 295.508 899.167 293.667 899.167 291.826 900.659 290.333 902.5 290.333 904.341 290.333 905.833 291.826 905.833 293.667Z" stroke="#4C60E6" stroke-width="2" stroke-linecap="round" stroke-linejoin="round" stroke-miterlimit="10" fill="#FFFFFF"/><path d="M905.833 291.333C905.833 293.174 904.341 294.667 902.5 294.667 900.659 294.667 899.167 293.174 899.167 291.333 899.167 289.492 900.659 288 902.5 288 904.341 288 905.833 289.492 905.833 291.333Z" stroke="#4C60E6" stroke-width="2" stroke-linecap="round" stroke-linejoin="round" stroke-miterlimit="10" fill="#FFFFFF"/><path d="M905.833 288.833C905.833 290.674 904.341 292.167 902.5 292.167 900.659 292.167 899.167 290.674 899.167 288.833 899.167 286.992 900.659 285.5 902.5 285.5 904.341 285.5 905.833 286.992 905.833 288.833Z" stroke="#4C60E6" stroke-width="2" stroke-linecap="round" stroke-linejoin="round" stroke-miterlimit="10" fill="#FFFFFF"/><path d="M905.833 286.5C905.833 288.341 904.341 289.833 902.5 289.833 900.659 289.833 899.167 288.341 899.167 286.5 899.167 284.659 900.659 283.167 902.5 283.167 904.341 283.167 905.833 284.659 905.833 286.5Z" stroke="#4C60E6" stroke-width="2" stroke-linecap="round" stroke-linejoin="round" stroke-miterlimit="10" fill="#FFFFFF"/><path d="M905.833 284.167C905.833 286.008 904.341 287.5 902.5 287.5 900.659 287.5 899.167 286.008 899.167 284.167 899.167 282.326 900.659 280.833 902.5 280.833 904.341 280.833 905.833 282.326 905.833 284.167Z" stroke="#4C60E6" stroke-width="2" stroke-linecap="round" stroke-linejoin="round" stroke-miterlimit="10" fill="#FFFFFF"/><path d="M905.833 281.833C905.833 283.674 904.341 285.167 902.5 285.167 900.659 285.167 899.167 283.674 899.167 281.833 899.167 279.992 900.659 278.5 902.5 278.5 904.341 278.5 905.833 279.992 905.833 281.833Z" stroke="#4C60E6" stroke-width="2" stroke-linecap="round" stroke-linejoin="round" stroke-miterlimit="10" fill="#FFFFFF"/><path d="M905.833 279.5C905.833 281.341 904.341 282.833 902.5 282.833 900.659 282.833 899.167 281.341 899.167 279.5 899.167 277.659 900.659 276.167 902.5 276.167 904.341 276.167 905.833 277.659 905.833 279.5Z" stroke="#4C60E6" stroke-width="2" stroke-linecap="round" stroke-linejoin="round" stroke-miterlimit="10" fill="#FFFFFF"/></g><g clip-path="url(#clip7)"><text fill="#595959" font-family="Calibri,Calibri_MSFontService,sans-serif" font-weight="400" transform="translate(358.627 398)">0%</text></g><g clip-path="url(#clip8)"><text fill="#595959" font-family="Calibri,Calibri_MSFontService,sans-serif" font-weight="400" transform="translate(352.547 375)">20%</text></g><g clip-path="url(#clip9)"><text fill="#595959" font-family="Calibri,Calibri_MSFontService,sans-serif" font-weight="400" transform="translate(352.547 352)">40%</text></g><g clip-path="url(#clip10)"><text fill="#595959" font-family="Calibri,Calibri_MSFontService,sans-serif" font-weight="400" transform="translate(352.547 329)">60%</text></g><g clip-path="url(#clip11)"><text fill="#595959" font-family="Calibri,Calibri_MSFontService,sans-serif" font-weight="400" transform="translate(352.547 306)">80%</text></g><g clip-path="url(#clip12)"><text fill="#595959" font-family="Calibri,Calibri_MSFontService,sans-serif" font-weight="400" transform="translate(346.467 282)">100%</text></g><g clip-path="url(#clip13)"><text fill="#595959" font-family="Calibri,Calibri_MSFontService,sans-serif" font-weight="400" transform="matrix(6.12323e-17 -1 1 6.12323e-17 388.096 424)">0,00</text></g><g clip-path="url(#clip14)"><text fill="#595959" font-family="Calibri,Calibri_MSFontService,sans-serif" font-weight="400" transform="matrix(6.12323e-17 -1 1 6.12323e-17 458.717 424)">0,20</text></g><g clip-path="url(#clip15)"><text fill="#595959" font-family="Calibri,Calibri_MSFontService,sans-serif" font-weight="400" transform="matrix(6.12323e-17 -1 1 6.12323e-17 529.338 424)">0,40</text></g><g clip-path="url(#clip16)"><text fill="#595959" font-family="Calibri,Calibri_MSFontService,sans-serif" font-weight="400" transform="matrix(6.12323e-17 -1 1 6.12323e-17 599.959 424)">0,60</text></g><g clip-path="url(#clip17)"><text fill="#595959" font-family="Calibri,Calibri_MSFontService,sans-serif" font-weight="400" transform="matrix(6.12323e-17 -1 1 6.12323e-17 670.58 424)">0,80</text></g><g clip-path="url(#clip18)"><text fill="#595959" font-family="Calibri,Calibri_MSFontService,sans-serif" font-weight="400" transform="matrix(6.12323e-17 -1 1 6.12323e-17 741.2 424)">1,00</text></g><g clip-path="url(#clip19)"><text fill="#595959" font-family="Calibri,Calibri_MSFontService,sans-serif" font-weight="400" transform="matrix(6.12323e-17 -1 1 6.12323e-17 811.821 424)">1,20</text></g><g clip-path="url(#clip20)"><text fill="#595959" font-family="Calibri,Calibri_MSFontService,sans-serif" font-weight="400" transform="matrix(6.12323e-17 -1 1 6.12323e-17 882.442 424)">1,40</text></g><g clip-path="url(#clip21)"><text fill="#595959" font-family="Calibri,Calibri_MSFontService,sans-serif" font-weight="400" transform="matrix(6.12323e-17 -1 1 6.12323e-17 953.063 424)">1,60</text></g><g clip-path="url(#clip22)"><text fill="#595959" font-family="Calibri,Calibri_MSFontService,sans-serif" font-weight="400" font-size="13" transform="matrix(6.12323e-17 -1 1 6.12323e-17 339.193 367)">Propability</text></g><g clip-path="url(#clip23)"><text fill="#595959" font-family="Calibri,Calibri_MSFontService,sans-serif" font-weight="400" font-size="13" transform="translate(633.119 450)">Est. finish time in h</text></g><g clip-path="url(#clip24)"><text fill="#595959" font-family="Calibri,Calibri_MSFontService,sans-serif" font-weight="400" font-size="19" transform="translate(577.287 258)">Propability chart</text></g><g clip-path="url(#clip25)"><path d="M581 471 607 471" stroke="#4C60E6" stroke-width="2" stroke-linecap="round" stroke-linejoin="round" stroke-miterlimit="10" fill="none" fill-rule="evenodd"/></g><g clip-path="url(#clip26)"><path d="M597 470.5C597 472.433 595.433 474 593.5 474 591.567 474 590 472.433 590 470.5 590 468.567 591.567 467 593.5 467 595.433 467 597 468.567 597 470.5Z" stroke="#4C60E6" stroke-width="2" stroke-linecap="round" stroke-linejoin="round" stroke-miterlimit="10" fill="#FFFFFF"/></g><g clip-path="url(#clip27)"><text fill="#595959" font-family="Calibri,Calibri_MSFontService,sans-serif" font-weight="400" transform="translate(609.243 474)">Last task prop. dist.</text></g></g></svg>