<svg width="648" height="262" xmlns="http://www.w3.org/2000/svg" xmlns:xlink="http://www.w3.org/1999/xlink" overflow="hidden"><defs><clipPath id="clip0"><path d="M316 229 964 229 964 491 316 491Z" fill-rule="evenodd" clip-rule="evenodd"/></clipPath><clipPath id="clip1"><path d="M317 230 962 230 962 489 317 489Z" fill-rule="evenodd" clip-rule="evenodd"/></clipPath><clipPath id="clip2"><path d="M317 230 962 230 962 489 317 489Z" fill-rule="evenodd" clip-rule="evenodd"/></clipPath><clipPath id="clip3"><path d="M317 230 962 230 962 489 317 489Z" fill-rule="evenodd" clip-rule="evenodd"/></clipPath><clipPath id="clip4"><path d="M317 230 962 230 962 489 317 489Z" fill-rule="evenodd" clip-rule="evenodd"/></clipPath><clipPath id="clip5"><path d="M384 279 950 279 950 396 384 396Z" fill-rule="evenodd" clip-rule="evenodd"/></clipPath><clipPath id="clip6"><path d="M317 230 962 230 962 489 317 489Z" fill-rule="evenodd" clip-rule="evenodd"/></clipPath><clipPath id="clip7"><path d="M317 230 962 230 962 489 317 489Z" fill-rule="evenodd" clip-rule="evenodd"/></clipPath><clipPath id="clip8"><path d="M317 230 962 230 962 489 317 489Z" fill-rule="evenodd" clip-rule="evenodd"/></clipPath><clipPath id="clip9"><path d="M317 230 962 230 962 489 317 489Z" fill-rule="evenodd" clip-rule="evenodd"/></clipPath><clipPath id="clip10"><path d="M317 230 962 230 962 489 317 489Z" fill-rule="evenodd" clip-rule="evenodd"/></clipPath><clipPath id="clip11"><path d="M317 230 962 230 962 489 317 489Z" fill-rule="evenodd" clip-rule="evenodd"/></clipPath><clipPath id="clip12"><path d="M317 230 962 230 962 489 317 489Z" fill-rule="evenodd" clip-rule="evenodd"/></clipPath><clipPath id="clip13"><path d="M317 230 962 230 962 489 317 489Z" fill-rule="evenodd" clip-rule="evenodd"/></clipPath><clipPath id="clip14"><path d="M317 230 962 230 962 489 317 489Z" fill-rule="evenodd" clip-rule="evenodd"/></clipPath><clipPath id="clip15"><path d="M317 230 962 230 962 489 317 489Z" fill-rule="evenodd" clip-rule="evenodd"/></clipPath><clipPath id="clip16"><path d="M317 230 962 230 962 489 317 489Z" fill-rule="evenodd" clip-rule="evenodd"/></clipPath><clipPath id="clip17"><path d="M317 230 962 230 962 489 317 489Z" fill-rule="evenodd" clip-rule="evenodd"/></clipPath><clipPath id="clip18"><path d="M317 230 962 230 962 489 317 489Z" fill-rule="evenodd" clip-rule="evenodd"/></clipPath><clipPath id="clip19"><path d="M317 230 962 230 962 489 317 489Z" fill-rule="evenodd" clip-rule="evenodd"/></clipPath><clipPath id="clip20"><path d="M317 230 962 230 962 489 317 489Z" fill-rule="evenodd" clip-rule="evenodd"/></clipPath><clipPath id="clip21"><path d="M317 230 962 230 962 489 317 489Z" fill-rule="evenodd" clip-rule="evenodd"/></clipPath><clipPath id="clip22"><path d="M317 230 962 230 962 489 317 489Z" fill-rule="evenodd" clip-rule="evenodd"/></clipPath><clipPath id="clip23"><path d="M317 230 962 230 962 489 317 489Z" fill-rule="evenodd" clip-rule="evenodd"/></clipPath><clipPath id="clip24"><path d="M317 230 962 230 962 489 317 489Z" fill-rule="evenodd" clip-rule="evenodd"/></clipPath><clipPath id="clip25"><path d="M317 230 962 230 962 489 317 489Z" fill-rule="evenodd" clip-rule="evenodd"/></clipPath><clipPath id="clip26"><path d="M317 230 962 230 962 489 317 489Z" fill-rule="evenodd" clip-rule="evenodd"/></clipPath><clipPath id="clip27"><path d="M317 230 962 230 962 489 317 489Z" fill-rule="evenodd" clip-rule="evenodd"/></clipPath><clipPath id="clip28"><path d="M317 230 962 230 962 489 317 489Z" fill-rule="evenodd" clip-rule="evenodd"/></clipPath></defs><g clip-path="url(#clip0)" transform="translate(-316 -229)"><g clip-path="url(#clip1)"><path d="M384.5 371.5 949.5 371.5M384.5 348.5 949.5 348.5M384.5 325.5 949.5 325.5M384.5 302.5 949.5 302.5M384.5 279.5 949.5 279.5" stroke="#D9D9D9" stroke-linejoin="round" stroke-miterlimit="10" fill="none"/></g><g clip-path="url(#clip2)"><path d="M384.5 279.5 384.5 395.5M447.5 279.5 447.5 395.5M509.5 279.5 509.5 395.5M572.5 279.5 572.5 395.5M635.5 279.5 635.5 395.5M698.5 279.5 698.5 395.5M761.5 279.5 761.5 395.5M823.5 279.5 823.5 395.5M886.5 279.5 886.5 395.5M949.5 279.5 949.5 395.5" stroke="#D9D9D9" stroke-linejoin="round" stroke-miterlimit="10" fill="none"/></g><g clip-path="url(#clip3)"><path d="M384.5 395.5 949.5 395.5" stroke="#D9D9D9" stroke-linejoin="round" stroke-miterlimit="10" fill="none" fill-rule="evenodd"/></g><g clip-path="url(#clip4)"><path d="M384.5 392.5 384.5 395.5M396.5 392.5 396.5 395.5M409.5 392.5 409.5 395.5M422.5 392.5 422.5 395.5M434.5 392.5 434.5 395.5M447.5 392.5 447.5 395.5M459.5 392.5 459.5 395.5M472.5 392.5 472.5 395.5M484.5 392.5 484.5 395.5M497.5 392.5 497.5 395.5M509.5 392.5 509.5 395.5M522.5 392.5 522.5 395.5M535.5 392.5 535.5 395.5M547.5 392.5 547.5 395.5M560.5 392.5 560.5 395.5M572.5 392.5 572.5 395.5M585.5 392.5 585.5 395.5M597.5 392.5 597.5 395.5M610.5 392.5 610.5 395.5M622.5 392.5 622.5 395.5M635.5 392.5 635.5 395.5M648.5 392.5 648.5 395.5M660.5 392.5 660.5 395.5M673.5 392.5 673.5 395.5M685.5 392.5 685.5 395.5M698.5 392.5 698.5 395.5M710.5 392.5 710.5 395.5M723.5 392.5 723.5 395.5M735.5 392.5 735.5 395.5M748.5 392.5 748.5 395.5M761.5 392.5 761.5 395.5M773.5 392.5 773.5 395.5M786.5 392.5 786.5 395.5M798.5 392.5 798.5 395.5M811.5 392.5 811.5 395.5M823.5 392.5 823.5 395.5M836.5 392.5 836.5 395.5M848.5 392.5 848.5 395.5M861.5 392.5 861.5 395.5M874.5 392.5 874.5 395.5M886.5 392.5 886.5 395.5M899.5 392.5 899.5 395.5M911.5 392.5 911.5 395.5M924.5 392.5 924.5 395.5M936.5 392.5 936.5 395.5M949.5 392.5 949.5 395.5M384.5 391.5 384.5 395.5M447.5 391.5 447.5 395.5M509.5 391.5 509.5 395.5M572.5 391.5 572.5 395.5M635.5 391.5 635.5 395.5M698.5 391.5 698.5 395.5M761.5 391.5 761.5 395.5M823.5 391.5 823.5 395.5M886.5 391.5 886.5 395.5M949.5 391.5 949.5 395.5" stroke="#D9D9D9" stroke-linejoin="round" stroke-miterlimit="10" fill="none"/></g><g clip-path="url(#clip5)"><path d="M384 395 384 393 384 390 392 388 392 386 392 383 418 381 418 379 418 376 418 374 418 371 418 369 418 367 424 364 458 362 458 360 531 357 531 355 539 353 539 350 539 348 539 346 539 343 565 341 565 338 571 336 571 334 571 331 571 329 578 327 578 324 604 322 604 320 604 317 613 315 613 312 613 310 618 308 618 305 618 303 618 301 618 298 652 296 652 294 845 291 845 289 879 287 885 284 885 282 918 279" stroke="#4C60E6" stroke-width="2" stroke-linecap="round" stroke-linejoin="round" stroke-miterlimit="10" fill="none"/></g><g clip-path="url(#clip6)"><path d="M387.833 395C387.833 396.841 386.341 398.333 384.5 398.333 382.659 398.333 381.167 396.841 381.167 395 381.167 393.159 382.659 391.667 384.5 391.667 386.341 391.667 387.833 393.159 387.833 395Z" stroke="#4C60E6" stroke-width="2" stroke-linecap="round" stroke-linejoin="round" stroke-miterlimit="10" fill="#FFFFFF"/><path d="M387.833 392.667C387.833 394.508 386.341 396 384.5 396 382.659 396 381.167 394.508 381.167 392.667 381.167 390.826 382.659 389.333 384.5 389.333 386.341 389.333 387.833 390.826 387.833 392.667Z" stroke="#4C60E6" stroke-width="2" stroke-linecap="round" stroke-linejoin="round" stroke-miterlimit="10" fill="#FFFFFF"/><path d="M387.833 390.333C387.833 392.174 386.341 393.667 384.5 393.667 382.659 393.667 381.167 392.174 381.167 390.333 381.167 388.492 382.659 387 384.5 387 386.341 387 387.833 388.492 387.833 390.333Z" stroke="#4C60E6" stroke-width="2" stroke-linecap="round" stroke-linejoin="round" stroke-miterlimit="10" fill="#FFFFFF"/><path d="M395.667 388C395.667 389.841 394.174 391.333 392.333 391.333 390.492 391.333 389 389.841 389 388 389 386.159 390.492 384.667 392.333 384.667 394.174 384.667 395.667 386.159 395.667 388Z" stroke="#4C60E6" stroke-width="2" stroke-linecap="round" stroke-linejoin="round" stroke-miterlimit="10" fill="#FFFFFF"/><path d="M395.667 385.667C395.667 387.508 394.174 389 392.333 389 390.492 389 389 387.508 389 385.667 389 383.826 390.492 382.333 392.333 382.333 394.174 382.333 395.667 383.826 395.667 385.667Z" stroke="#4C60E6" stroke-width="2" stroke-linecap="round" stroke-linejoin="round" stroke-miterlimit="10" fill="#FFFFFF"/><path d="M395.667 383.333C395.667 385.174 394.174 386.667 392.333 386.667 390.492 386.667 389 385.174 389 383.333 389 381.492 390.492 380 392.333 380 394.174 380 395.667 381.492 395.667 383.333Z" stroke="#4C60E6" stroke-width="2" stroke-linecap="round" stroke-linejoin="round" stroke-miterlimit="10" fill="#FFFFFF"/><path d="M421.667 380.833C421.667 382.674 420.174 384.167 418.333 384.167 416.492 384.167 415 382.674 415 380.833 415 378.992 416.492 377.5 418.333 377.5 420.174 377.5 421.667 378.992 421.667 380.833Z" stroke="#4C60E6" stroke-width="2" stroke-linecap="round" stroke-linejoin="round" stroke-miterlimit="10" fill="#FFFFFF"/><path d="M421.667 378.5C421.667 380.341 420.174 381.833 418.333 381.833 416.492 381.833 415 380.341 415 378.5 415 376.659 416.492 375.167 418.333 375.167 420.174 375.167 421.667 376.659 421.667 378.5Z" stroke="#4C60E6" stroke-width="2" stroke-linecap="round" stroke-linejoin="round" stroke-miterlimit="10" fill="#FFFFFF"/><path d="M421.667 376.167C421.667 378.008 420.174 379.5 418.333 379.5 416.492 379.5 415 378.008 415 376.167 415 374.326 416.492 372.833 418.333 372.833 420.174 372.833 421.667 374.326 421.667 376.167Z" stroke="#4C60E6" stroke-width="2" stroke-linecap="round" stroke-linejoin="round" stroke-miterlimit="10" fill="#FFFFFF"/><path d="M421.667 373.833C421.667 375.674 420.174 377.167 418.333 377.167 416.492 377.167 415 375.674 415 373.833 415 371.992 416.492 370.5 418.333 370.5 420.174 370.5 421.667 371.992 421.667 373.833Z" stroke="#4C60E6" stroke-width="2" stroke-linecap="round" stroke-linejoin="round" stroke-miterlimit="10" fill="#FFFFFF"/><path d="M421.667 371.5C421.667 373.341 420.174 374.833 418.333 374.833 416.492 374.833 415 373.341 415 371.5 415 369.659 416.492 368.167 418.333 368.167 420.174 368.167 421.667 369.659 421.667 371.5Z" stroke="#4C60E6" stroke-width="2" stroke-linecap="round" stroke-linejoin="round" stroke-miterlimit="10" fill="#FFFFFF"/><path d="M421.667 369.167C421.667 371.008 420.174 372.5 418.333 372.5 416.492 372.5 415 371.008 415 369.167 415 367.326 416.492 365.833 418.333 365.833 420.174 365.833 421.667 367.326 421.667 369.167Z" stroke="#4C60E6" stroke-width="2" stroke-linecap="round" stroke-linejoin="round" stroke-miterlimit="10" fill="#FFFFFF"/><path d="M421.667 366.833C421.667 368.674 420.174 370.167 418.333 370.167 416.492 370.167 415 368.674 415 366.833 415 364.992 416.492 363.5 418.333 363.5 420.174 363.5 421.667 364.992 421.667 366.833Z" stroke="#4C60E6" stroke-width="2" stroke-linecap="round" stroke-linejoin="round" stroke-miterlimit="10" fill="#FFFFFF"/><path d="M427.667 364.333C427.667 366.174 426.174 367.667 424.333 367.667 422.492 367.667 421 366.174 421 364.333 421 362.492 422.492 361 424.333 361 426.174 361 427.667 362.492 427.667 364.333Z" stroke="#4C60E6" stroke-width="2" stroke-linecap="round" stroke-linejoin="round" stroke-miterlimit="10" fill="#FFFFFF"/><path d="M460.833 362C460.833 363.841 459.341 365.333 457.5 365.333 455.659 365.333 454.167 363.841 454.167 362 454.167 360.159 455.659 358.667 457.5 358.667 459.341 358.667 460.833 360.159 460.833 362Z" stroke="#4C60E6" stroke-width="2" stroke-linecap="round" stroke-linejoin="round" stroke-miterlimit="10" fill="#FFFFFF"/><path d="M460.833 359.667C460.833 361.508 459.341 363 457.5 363 455.659 363 454.167 361.508 454.167 359.667 454.167 357.826 455.659 356.333 457.5 356.333 459.341 356.333 460.833 357.826 460.833 359.667Z" stroke="#4C60E6" stroke-width="2" stroke-linecap="round" stroke-linejoin="round" stroke-miterlimit="10" fill="#FFFFFF"/><path d="M534.333 357.333C534.333 359.174 532.841 360.667 531 360.667 529.159 360.667 527.667 359.174 527.667 357.333 527.667 355.492 529.159 354 531 354 532.841 354 534.333 355.492 534.333 357.333Z" stroke="#4C60E6" stroke-width="2" stroke-linecap="round" stroke-linejoin="round" stroke-miterlimit="10" fill="#FFFFFF"/><path d="M534.333 355C534.333 356.841 532.841 358.333 531 358.333 529.159 358.333 527.667 356.841 527.667 355 527.667 353.159 529.159 351.667 531 351.667 532.841 351.667 534.333 353.159 534.333 355Z" stroke="#4C60E6" stroke-width="2" stroke-linecap="round" stroke-linejoin="round" stroke-miterlimit="10" fill="#FFFFFF"/><path d="M542.167 352.667C542.167 354.508 540.674 356 538.833 356 536.992 356 535.5 354.508 535.5 352.667 535.5 350.826 536.992 349.333 538.833 349.333 540.674 349.333 542.167 350.826 542.167 352.667Z" stroke="#4C60E6" stroke-width="2" stroke-linecap="round" stroke-linejoin="round" stroke-miterlimit="10" fill="#FFFFFF"/><path d="M542.167 350.167C542.167 352.008 540.674 353.5 538.833 353.5 536.992 353.5 535.5 352.008 535.5 350.167 535.5 348.326 536.992 346.833 538.833 346.833 540.674 346.833 542.167 348.326 542.167 350.167Z" stroke="#4C60E6" stroke-width="2" stroke-linecap="round" stroke-linejoin="round" stroke-miterlimit="10" fill="#FFFFFF"/><path d="M542.167 347.833C542.167 349.674 540.674 351.167 538.833 351.167 536.992 351.167 535.5 349.674 535.5 347.833 535.5 345.992 536.992 344.5 538.833 344.5 540.674 344.5 542.167 345.992 542.167 347.833Z" stroke="#4C60E6" stroke-width="2" stroke-linecap="round" stroke-linejoin="round" stroke-miterlimit="10" fill="#FFFFFF"/><path d="M542.167 345.5C542.167 347.341 540.674 348.833 538.833 348.833 536.992 348.833 535.5 347.341 535.5 345.5 535.5 343.659 536.992 342.167 538.833 342.167 540.674 342.167 542.167 343.659 542.167 345.5Z" stroke="#4C60E6" stroke-width="2" stroke-linecap="round" stroke-linejoin="round" stroke-miterlimit="10" fill="#FFFFFF"/><path d="M542.167 343.167C542.167 345.008 540.674 346.5 538.833 346.5 536.992 346.5 535.5 345.008 535.5 343.167 535.5 341.326 536.992 339.833 538.833 339.833 540.674 339.833 542.167 341.326 542.167 343.167Z" stroke="#4C60E6" stroke-width="2" stroke-linecap="round" stroke-linejoin="round" stroke-miterlimit="10" fill="#FFFFFF"/><path d="M568.167 340.833C568.167 342.674 566.674 344.167 564.833 344.167 562.992 344.167 561.5 342.674 561.5 340.833 561.5 338.992 562.992 337.5 564.833 337.5 566.674 337.5 568.167 338.992 568.167 340.833Z" stroke="#4C60E6" stroke-width="2" stroke-linecap="round" stroke-linejoin="round" stroke-miterlimit="10" fill="#FFFFFF"/><path d="M568.167 338.5C568.167 340.341 566.674 341.833 564.833 341.833 562.992 341.833 561.5 340.341 561.5 338.5 561.5 336.659 562.992 335.167 564.833 335.167 566.674 335.167 568.167 336.659 568.167 338.5Z" stroke="#4C60E6" stroke-width="2" stroke-linecap="round" stroke-linejoin="round" stroke-miterlimit="10" fill="#FFFFFF"/><path d="M574.167 336C574.167 337.841 572.674 339.333 570.833 339.333 568.992 339.333 567.5 337.841 567.5 336 567.5 334.159 568.992 332.667 570.833 332.667 572.674 332.667 574.167 334.159 574.167 336Z" stroke="#4C60E6" stroke-width="2" stroke-linecap="round" stroke-linejoin="round" stroke-miterlimit="10" fill="#FFFFFF"/><path d="M574.167 333.667C574.167 335.508 572.674 337 570.833 337 568.992 337 567.5 335.508 567.5 333.667 567.5 331.826 568.992 330.333 570.833 330.333 572.674 330.333 574.167 331.826 574.167 333.667Z" stroke="#4C60E6" stroke-width="2" stroke-linecap="round" stroke-linejoin="round" stroke-miterlimit="10" fill="#FFFFFF"/><path d="M574.167 331.333C574.167 333.174 572.674 334.667 570.833 334.667 568.992 334.667 567.5 333.174 567.5 331.333 567.5 329.492 568.992 328 570.833 328 572.674 328 574.167 329.492 574.167 331.333Z" stroke="#4C60E6" stroke-width="2" stroke-linecap="round" stroke-linejoin="round" stroke-miterlimit="10" fill="#FFFFFF"/><path d="M574.167 329C574.167 330.841 572.674 332.333 570.833 332.333 568.992 332.333 567.5 330.841 567.5 329 567.5 327.159 568.992 325.667 570.833 325.667 572.674 325.667 574.167 327.159 574.167 329Z" stroke="#4C60E6" stroke-width="2" stroke-linecap="round" stroke-linejoin="round" stroke-miterlimit="10" fill="#FFFFFF"/><path d="M581.667 326.667C581.667 328.508 580.174 330 578.333 330 576.492 330 575 328.508 575 326.667 575 324.826 576.492 323.333 578.333 323.333 580.174 323.333 581.667 324.826 581.667 326.667Z" stroke="#4C60E6" stroke-width="2" stroke-linecap="round" stroke-linejoin="round" stroke-miterlimit="10" fill="#FFFFFF"/><path d="M581.667 324.333C581.667 326.174 580.174 327.667 578.333 327.667 576.492 327.667 575 326.174 575 324.333 575 322.492 576.492 321 578.333 321 580.174 321 581.667 322.492 581.667 324.333Z" stroke="#4C60E6" stroke-width="2" stroke-linecap="round" stroke-linejoin="round" stroke-miterlimit="10" fill="#FFFFFF"/><path d="M607.5 322C607.5 323.841 606.008 325.333 604.167 325.333 602.326 325.333 600.833 323.841 600.833 322 600.833 320.159 602.326 318.667 604.167 318.667 606.008 318.667 607.5 320.159 607.5 322Z" stroke="#4C60E6" stroke-width="2" stroke-linecap="round" stroke-linejoin="round" stroke-miterlimit="10" fill="#FFFFFF"/><path d="M607.5 319.5C607.5 321.341 606.008 322.833 604.167 322.833 602.326 322.833 600.833 321.341 600.833 319.5 600.833 317.659 602.326 316.167 604.167 316.167 606.008 316.167 607.5 317.659 607.5 319.5Z" stroke="#4C60E6" stroke-width="2" stroke-linecap="round" stroke-linejoin="round" stroke-miterlimit="10" fill="#FFFFFF"/><path d="M607.5 317.167C607.5 319.008 606.008 320.5 604.167 320.5 602.326 320.5 600.833 319.008 600.833 317.167 600.833 315.326 602.326 313.833 604.167 313.833 606.008 313.833 607.5 315.326 607.5 317.167Z" stroke="#4C60E6" stroke-width="2" stroke-linecap="round" stroke-linejoin="round" stroke-miterlimit="10" fill="#FFFFFF"/><path d="M616 314.833C616 316.674 614.508 318.167 612.667 318.167 610.826 318.167 609.333 316.674 609.333 314.833 609.333 312.992 610.826 311.5 612.667 311.5 614.508 311.5 616 312.992 616 314.833Z" stroke="#4C60E6" stroke-width="2" stroke-linecap="round" stroke-linejoin="round" stroke-miterlimit="10" fill="#FFFFFF"/><path d="M616 312.5C616 314.341 614.508 315.833 612.667 315.833 610.826 315.833 609.333 314.341 609.333 312.5 609.333 310.659 610.826 309.167 612.667 309.167 614.508 309.167 616 310.659 616 312.5Z" stroke="#4C60E6" stroke-width="2" stroke-linecap="round" stroke-linejoin="round" stroke-miterlimit="10" fill="#FFFFFF"/><path d="M616 310.167C616 312.008 614.508 313.5 612.667 313.5 610.826 313.5 609.333 312.008 609.333 310.167 609.333 308.326 610.826 306.833 612.667 306.833 614.508 306.833 616 308.326 616 310.167Z" stroke="#4C60E6" stroke-width="2" stroke-linecap="round" stroke-linejoin="round" stroke-miterlimit="10" fill="#FFFFFF"/><path d="M621.667 307.833C621.667 309.674 620.174 311.167 618.333 311.167 616.492 311.167 615 309.674 615 307.833 615 305.992 616.492 304.5 618.333 304.5 620.174 304.5 621.667 305.992 621.667 307.833Z" stroke="#4C60E6" stroke-width="2" stroke-linecap="round" stroke-linejoin="round" stroke-miterlimit="10" fill="#FFFFFF"/><path d="M621.667 305.333C621.667 307.174 620.174 308.667 618.333 308.667 616.492 308.667 615 307.174 615 305.333 615 303.492 616.492 302 618.333 302 620.174 302 621.667 303.492 621.667 305.333Z" stroke="#4C60E6" stroke-width="2" stroke-linecap="round" stroke-linejoin="round" stroke-miterlimit="10" fill="#FFFFFF"/><path d="M621.667 303C621.667 304.841 620.174 306.333 618.333 306.333 616.492 306.333 615 304.841 615 303 615 301.159 616.492 299.667 618.333 299.667 620.174 299.667 621.667 301.159 621.667 303Z" stroke="#4C60E6" stroke-width="2" stroke-linecap="round" stroke-linejoin="round" stroke-miterlimit="10" fill="#FFFFFF"/><path d="M621.667 300.667C621.667 302.508 620.174 304 618.333 304 616.492 304 615 302.508 615 300.667 615 298.826 616.492 297.333 618.333 297.333 620.174 297.333 621.667 298.826 621.667 300.667Z" stroke="#4C60E6" stroke-width="2" stroke-linecap="round" stroke-linejoin="round" stroke-miterlimit="10" fill="#FFFFFF"/><path d="M621.667 298.333C621.667 300.174 620.174 301.667 618.333 301.667 616.492 301.667 615 300.174 615 298.333 615 296.492 616.492 295 618.333 295 620.174 295 621.667 296.492 621.667 298.333Z" stroke="#4C60E6" stroke-width="2" stroke-linecap="round" stroke-linejoin="round" stroke-miterlimit="10" fill="#FFFFFF"/><path d="M655.167 296C655.167 297.841 653.674 299.333 651.833 299.333 649.992 299.333 648.5 297.841 648.5 296 648.5 294.159 649.992 292.667 651.833 292.667 653.674 292.667 655.167 294.159 655.167 296Z" stroke="#4C60E6" stroke-width="2" stroke-linecap="round" stroke-linejoin="round" stroke-miterlimit="10" fill="#FFFFFF"/><path d="M655.167 293.667C655.167 295.508 653.674 297 651.833 297 649.992 297 648.5 295.508 648.5 293.667 648.5 291.826 649.992 290.333 651.833 290.333 653.674 290.333 655.167 291.826 655.167 293.667Z" stroke="#4C60E6" stroke-width="2" stroke-linecap="round" stroke-linejoin="round" stroke-miterlimit="10" fill="#FFFFFF"/><path d="M848.167 291.333C848.167 293.174 846.674 294.667 844.833 294.667 842.992 294.667 841.5 293.174 841.5 291.333 841.5 289.492 842.992 288 844.833 288 846.674 288 848.167 289.492 848.167 291.333Z" stroke="#4C60E6" stroke-width="2" stroke-linecap="round" stroke-linejoin="round" stroke-miterlimit="10" fill="#FFFFFF"/><path d="M848.167 288.833C848.167 290.674 846.674 292.167 844.833 292.167 842.992 292.167 841.5 290.674 841.5 288.833 841.5 286.992 842.992 285.5 844.833 285.5 846.674 285.5 848.167 286.992 848.167 288.833Z" stroke="#4C60E6" stroke-width="2" stroke-linecap="round" stroke-linejoin="round" stroke-miterlimit="10" fill="#FFFFFF"/><path d="M882.167 286.5C882.167 288.341 880.674 289.833 878.833 289.833 876.992 289.833 875.5 288.341 875.5 286.5 875.5 284.659 876.992 283.167 878.833 283.167 880.674 283.167 882.167 284.659 882.167 286.5Z" stroke="#4C60E6" stroke-width="2" stroke-linecap="round" stroke-linejoin="round" stroke-miterlimit="10" fill="#FFFFFF"/><path d="M888 284.167C888 286.008 886.508 287.5 884.667 287.5 882.826 287.5 881.333 286.008 881.333 284.167 881.333 282.326 882.826 280.833 884.667 280.833 886.508 280.833 888 282.326 888 284.167Z" stroke="#4C60E6" stroke-width="2" stroke-linecap="round" stroke-linejoin="round" stroke-miterlimit="10" fill="#FFFFFF"/><path d="M888 281.833C888 283.674 886.508 285.167 884.667 285.167 882.826 285.167 881.333 283.674 881.333 281.833 881.333 279.992 882.826 278.5 884.667 278.5 886.508 278.5 888 279.992 888 281.833Z" stroke="#4C60E6" stroke-width="2" stroke-linecap="round" stroke-linejoin="round" stroke-miterlimit="10" fill="#FFFFFF"/><path d="M921.333 279.5C921.333 281.341 919.841 282.833 918 282.833 916.159 282.833 914.667 281.341 914.667 279.5 914.667 277.659 916.159 276.167 918 276.167 919.841 276.167 921.333 277.659 921.333 279.5Z" stroke="#4C60E6" stroke-width="2" stroke-linecap="round" stroke-linejoin="round" stroke-miterlimit="10" fill="#FFFFFF"/></g><g clip-path="url(#clip7)"><text fill="#595959" font-family="Calibri,Calibri_MSFontService,sans-serif" font-weight="400" transform="translate(358.627 398)">0%</text></g><g clip-path="url(#clip8)"><text fill="#595959" font-family="Calibri,Calibri_MSFontService,sans-serif" font-weight="400" transform="translate(352.547 375)">20%</text></g><g clip-path="url(#clip9)"><text fill="#595959" font-family="Calibri,Calibri_MSFontService,sans-serif" font-weight="400" transform="translate(352.547 352)">40%</text></g><g clip-path="url(#clip10)"><text fill="#595959" font-family="Calibri,Calibri_MSFontService,sans-serif" font-weight="400" transform="translate(352.547 329)">60%</text></g><g clip-path="url(#clip11)"><text fill="#595959" font-family="Calibri,Calibri_MSFontService,sans-serif" font-weight="400" transform="translate(352.547 306)">80%</text></g><g clip-path="url(#clip12)"><text fill="#595959" font-family="Calibri,Calibri_MSFontService,sans-serif" font-weight="400" transform="translate(346.467 282)">100%</text></g><g clip-path="url(#clip13)"><text fill="#595959" font-family="Calibri,Calibri_MSFontService,sans-serif" font-weight="400" transform="matrix(6.12323e-17 -1 1 6.12323e-17 388.096 424)">0,00</text></g><g clip-path="url(#clip14)"><text fill="#595959" font-family="Calibri,Calibri_MSFontService,sans-serif" font-weight="400" transform="matrix(6.12323e-17 -1 1 6.12323e-17 450.87 424)">0,20</text></g><g clip-path="url(#clip15)"><text fill="#595959" font-family="Calibri,Calibri_MSFontService,sans-serif" font-weight="400" transform="matrix(6.12323e-17 -1 1 6.12323e-17 513.644 424)">0,40</text></g><g clip-path="url(#clip16)"><text fill="#595959" font-family="Calibri,Calibri_MSFontService,sans-serif" font-weight="400" transform="matrix(6.12323e-17 -1 1 6.12323e-17 576.418 424)">0,60</text></g><g clip-path="url(#clip17)"><text fill="#595959" font-family="Calibri,Calibri_MSFontService,sans-serif" font-weight="400" transform="matrix(6.12323e-17 -1 1 6.12323e-17 639.192 424)">0,80</text></g><g clip-path="url(#clip18)"><text fill="#595959" font-family="Calibri,Calibri_MSFontService,sans-serif" font-weight="400" transform="matrix(6.12323e-17 -1 1 6.12323e-17 701.967 424)">1,00</text></g><g clip-path="url(#clip19)"><text fill="#595959" font-family="Calibri,Calibri_MSFontService,sans-serif" font-weight="400" transform="matrix(6.12323e-17 -1 1 6.12323e-17 764.741 424)">1,20</text></g><g clip-path="url(#clip20)"><text fill="#595959" font-family="Calibri,Calibri_MSFontService,sans-serif" font-weight="400" transform="matrix(6.12323e-17 -1 1 6.12323e-17 827.515 424)">1,40</text></g><g clip-path="url(#clip21)"><text fill="#595959" font-family="Calibri,Calibri_MSFontService,sans-serif" font-weight="400" transform="matrix(6.12323e-17 -1 1 6.12323e-17 890.289 424)">1,60</text></g><g clip-path="url(#clip22)"><text fill="#595959" font-family="Calibri,Calibri_MSFontService,sans-serif" font-weight="400" transform="matrix(6.12323e-17 -1 1 6.12323e-17 953.063 424)">1,80</text></g><g clip-path="url(#clip23)"><text fill="#595959" font-family="Calibri,Calibri_MSFontService,sans-serif" font-weight="400" font-size="13" transform="matrix(6.12323e-17 -1 1 6.12323e-17 339.193 367)">Propability</text></g><g clip-path="url(#clip24)"><text fill="#595959" font-family="Calibri,Calibri_MSFontService,sans-serif" font-weight="400" font-size="13" transform="translate(633.119 450)">Est. finish time in h</text></g><g clip-path="url(#clip25)"><text fill="#595959" font-family="Calibri,Calibri_MSFontService,sans-serif" font-weight="400" font-size="19" transform="translate(577.287 258)">Propability chart</text></g><g clip-path="url(#clip26)"><path d="M581 471 607 471" stroke="#4C60E6" stroke-width="2" stroke-linecap="round" stroke-linejoin="round" stroke-miterlimit="10" fill="none" fill-rule="evenodd"/></g><g clip-path="url(#clip27)"><path d="M597 470.5C597 472.433 595.433 474 593.5 474 591.567 474 590 472.433 590 470.5 590 468.567 591.567 467 593.5 467 595.433 467 597 468.567 597 470.5Z" stroke="#4C60E6" stroke-width="2" stroke-linecap="round" stroke-linejoin="round" stroke-miterlimit="10" fill="#FFFFFF"/></g><g clip-path="url(#clip28)"><text fill="#595959" font-family="Calibri,Calibri_MSFontService,sans-serif" font-weight="400" transform="translate(609.243 474)">Last task prop. dist.</text></g></g></svg>